<?xml version="1.0" standalone="no"?>
<!DOCTYPE svg PUBLIC "-//W3C//DTD SVG 20010904//EN"
 "http://www.w3.org/TR/2001/REC-SVG-20010904/DTD/svg10.dtd">
<svg version="1.0" xmlns="http://www.w3.org/2000/svg"
 width="1200.000000pt" height="1200.000000pt" viewBox="0 0 1200.000000 1200.000000"
 preserveAspectRatio="xMidYMid meet">

<g transform="translate(0.000000,1200.000000) scale(0.100000,-0.100000)"
fill="#000000" stroke="none">
<path d="M2905 10253 c-552 -21 -1208 -94 -1432 -159 -186 -53 -228 -294 -70
-401 57 -38 119 -49 194 -34 31 6 57 10 59 8 1 -1 -78 -468 -177 -1037 -98
-569 -178 -1041 -179 -1047 0 -10 -25 -13 -91 -13 -200 0 -376 -74 -458 -193
-26 -39 -301 -706 -301 -732 0 -6 47 -34 105 -63 l105 -52 103 79 c159 122
307 215 487 305 280 140 560 229 871 278 123 19 185 22 424 22 179 1 312 -4
370 -12 697 -100 1269 -387 1740 -873 212 -219 371 -439 502 -694 198 -388
295 -739 323 -1174 18 -275 -16 -628 -85 -889 -14 -52 -25 -96 -25 -98 0 -2
587 -4 1304 -4 l1303 0 6 182 c16 540 226 1033 613 1437 57 60 104 111 104
114 0 9 -192 146 -305 219 -404 261 -901 475 -1367 589 l-138 34 0 113 c0 104
1 112 19 112 41 0 355 -85 536 -144 493 -163 965 -409 1354 -704 89 -67 96
-71 115 -57 75 53 218 137 321 186 481 232 1030 279 1535 134 63 -18 124 -37
134 -41 19 -7 19 -3 12 132 -27 555 -117 972 -231 1073 -53 46 -538 202 -954
306 -629 158 -1324 276 -2053 351 l-168 17 0 953 c0 919 1 954 20 1015 24 80
67 132 134 165 101 51 149 120 149 214 0 102 -63 188 -160 216 -69 20 -116 12
-213 -33 -59 -28 -94 -54 -161 -122 -128 -129 -195 -273 -219 -471 -6 -52 -10
-436 -10 -992 l0 -908 -95 0 c-90 0 -96 1 -105 23 -5 12 -127 531 -271 1152
-144 622 -270 1146 -280 1166 -27 53 -93 106 -148 118 -89 20 -669 101 -936
131 -673 74 -1324 111 -1910 108 -181 -1 -361 -3 -400 -5z m805 -1762 l0
-1029 -77 24 c-43 13 -127 36 -188 51 l-110 27 -787 3 c-434 2 -788 6 -788 10
0 3 13 83 30 177 134 777 300 1747 300 1755 0 8 247 11 810 11 l810 0 0 -1029z
m2229 992 c6 -21 118 -504 251 -1074 l240 -1036 0 -832 0 -831 -409 0 -409 0
-22 58 c-34 83 -140 296 -190 377 -115 189 -227 332 -394 503 -231 236 -461
415 -734 567 l-102 58 0 1123 0 1124 880 0 879 0 10 -37z m3218 -2716 c15 -14
63 -123 124 -278 110 -278 113 -298 64 -349 -15 -16 -40 -31 -56 -34 -34 -7
-86 12 -110 40 -22 25 -209 509 -209 539 0 98 119 150 187 82z m513 18 c37
-19 39 -23 149 -303 58 -149 91 -246 91 -271 0 -114 -156 -148 -208 -44 -10
21 -59 139 -108 263 -96 246 -103 283 -63 327 42 44 89 54 139 28z"/>
<path d="M2335 6834 c-607 -63 -1122 -299 -1555 -711 -259 -246 -498 -612
-625 -957 -48 -130 -108 -370 -131 -521 -22 -148 -26 -532 -6 -670 59 -409
187 -756 400 -1080 112 -171 186 -261 341 -415 328 -326 730 -555 1166 -664
241 -60 330 -71 620 -71 287 0 369 8 590 60 734 172 1360 667 1698 1343 186
373 269 724 269 1142 0 420 -84 774 -271 1145 -129 254 -263 440 -464 644
-396 400 -894 654 -1447 737 -101 15 -497 27 -585 18z m356 -1114 c457 -47
858 -301 1095 -696 88 -147 140 -284 180 -474 27 -127 25 -411 -4 -542 -85
-388 -300 -707 -622 -920 -149 -98 -356 -181 -540 -214 -129 -24 -373 -24
-495 -1 -538 104 -967 482 -1124 993 -17 55 -37 139 -46 188 -20 118 -20 355
1 477 95 553 518 1013 1059 1149 178 45 324 57 496 40z"/>
<path d="M2350 5251 c-228 -49 -440 -183 -582 -370 -67 -89 -143 -247 -170
-356 -18 -72 -22 -118 -22 -235 0 -178 22 -278 93 -425 130 -266 343 -442 637
-527 69 -20 101 -23 249 -23 200 0 265 15 430 95 276 134 473 394 536 705 15
77 15 261 0 345 -75 409 -407 737 -811 800 -99 15 -264 11 -360 -9z"/>
<path d="M9928 5355 c-536 -76 -1017 -394 -1298 -856 -508 -834 -262 -1924
555 -2462 230 -151 478 -244 754 -283 159 -22 432 -15 586 16 650 129 1181
599 1385 1225 193 594 67 1243 -335 1724 -265 317 -622 531 -1029 617 -152 32
-461 42 -618 19z m412 -961 c326 -61 585 -304 671 -629 17 -62 21 -109 21
-210 0 -101 -4 -148 -21 -210 -144 -540 -741 -803 -1230 -543 -203 108 -366
311 -427 533 -25 90 -30 293 -10 389 40 196 148 375 298 494 200 159 454 223
698 176z"/>
</g>
</svg>
