<?xml version="1.0" standalone="no"?>
<!DOCTYPE svg PUBLIC "-//W3C//DTD SVG 20010904//EN"
 "http://www.w3.org/TR/2001/REC-SVG-20010904/DTD/svg10.dtd">
<svg version="1.0" xmlns="http://www.w3.org/2000/svg"
 width="661.000000pt" height="261.000000pt" viewBox="0 0 661.000000 261.000000"
 preserveAspectRatio="xMidYMid meet">

<g transform="translate(0.000000,261.000000) scale(0.100000,-0.100000)"
fill="#000000" stroke="none">
<path d="M398 2329 c-42 -6 -75 -28 -99 -66 -18 -27 -19 -63 -19 -693 0 -650
1 -666 20 -698 12 -20 38 -41 64 -53 43 -19 81 -19 1869 -17 l1826 3 27 21
c15 11 37 33 48 48 21 27 21 36 21 696 0 664 0 669 -21 697 -12 15 -35 36 -51
46 -29 16 -131 17 -1840 20 -996 1 -1826 -1 -1845 -4z m3566 -226 c8 -50 8
-804 -1 -976 l-6 -137 -1728 0 c-950 0 -1734 3 -1743 6 -14 6 -16 66 -16 575
l0 569 1744 0 1743 0 7 -37z"/>
<path d="M4313 2113 c-12 -2 -34 -18 -48 -34 l-25 -31 0 -831 c0 -458 4 -837
8 -844 11 -17 46 -18 575 -15 l468 2 24 24 c46 46 45 109 -2 152 -25 23 -31
24 -174 24 -112 0 -149 3 -149 13 -3 130 1 881 4 885 3 2 54 4 113 3 l108 -2
60 -62 c33 -34 127 -135 209 -223 l149 -162 233 -72 233 -73 3 -218 c3 -203 4
-220 24 -246 43 -58 135 -53 168 10 15 28 17 64 14 305 l-3 274 -27 23 c-14
12 -77 38 -140 58 -62 19 -175 54 -250 78 l-138 42 -197 214 c-109 118 -200
217 -203 221 -25 33 -47 37 -223 42 l-180 5 -27 51 c-115 224 -312 369 -525
387 -33 3 -70 3 -82 0z m222 -242 c77 -40 157 -127 204 -222 l41 -82 -2 -506
-3 -506 -166 -3 -166 -2 -6 671 c-4 369 -4 676 -1 681 7 11 36 3 99 -31z"/>
<path d="M5095 937 c-59 -27 -71 -98 -26 -149 l29 -33 162 0 162 0 29 33 c42
47 36 110 -14 142 -31 21 -300 26 -342 7z"/>
<path d="M765 747 c-94 -31 -159 -89 -198 -176 -31 -67 -30 -187 2 -259 33
-73 115 -147 188 -168 115 -33 243 -4 322 75 63 63 84 112 89 212 4 81 2 91
-27 152 -51 108 -141 166 -265 173 -43 2 -87 -1 -111 -9z m151 -193 c42 -20
64 -59 64 -115 0 -35 -6 -48 -39 -80 -31 -31 -46 -39 -75 -39 -98 0 -165 98
-123 180 17 34 74 70 109 70 17 0 45 -7 64 -16z"/>
<path d="M1433 746 c-144 -47 -227 -157 -227 -301 0 -95 29 -157 103 -229 71
-67 139 -91 240 -84 112 8 204 71 257 175 25 50 29 69 29 138 -1 93 -22 149
-80 213 -75 83 -218 122 -322 88z m155 -196 c80 -49 75 -172 -9 -216 -84 -43
-179 17 -179 113 0 51 18 82 60 104 45 24 87 24 128 -1z"/>
<path d="M2095 747 c-66 -22 -99 -43 -142 -90 -119 -129 -108 -329 26 -449 94
-85 236 -102 356 -43 181 88 222 357 77 500 -82 80 -216 115 -317 82z m150
-193 c113 -53 67 -234 -60 -234 -38 0 -52 6 -83 34 -34 32 -37 39 -37 89 0 45
5 60 25 82 43 47 97 57 155 29z"/>
<path d="M3080 743 c-96 -34 -170 -107 -200 -198 -8 -22 -14 -72 -14 -110 -1
-165 123 -293 294 -303 91 -5 164 19 229 74 40 35 101 136 101 170 0 32 24 7
37 -41 20 -66 117 -163 188 -188 113 -39 252 -11 331 68 61 62 86 117 92 201
9 138 -46 243 -159 304 -59 32 -71 35 -149 35 -99 0 -161 -23 -224 -83 -36
-35 -96 -141 -96 -170 0 -26 -17 -2 -29 40 -46 162 -237 258 -401 201z m167
-193 c39 -24 54 -50 55 -99 1 -76 -52 -131 -125 -131 -78 0 -138 82 -117 160
21 79 115 114 187 70z m644 -3 c46 -31 61 -63 55 -117 -3 -35 -11 -51 -40 -77
-58 -54 -137 -43 -183 26 -76 112 56 244 168 168z"/>
<path d="M5615 743 c-72 -24 -166 -119 -190 -192 -24 -72 -17 -189 14 -249 72
-141 230 -203 392 -156 74 22 168 116 194 193 37 112 6 248 -73 326 -86 85
-223 117 -337 78z m173 -193 c34 -21 62 -72 62 -112 0 -34 -35 -85 -71 -104
-109 -56 -226 75 -157 176 42 62 105 77 166 40z"/>
</g>
</svg>
