<?xml version="1.0" standalone="no"?>
<!DOCTYPE svg PUBLIC "-//W3C//DTD SVG 20010904//EN"
 "http://www.w3.org/TR/2001/REC-SVG-20010904/DTD/svg10.dtd">
<svg version="1.0" xmlns="http://www.w3.org/2000/svg"
 width="663.000000pt" height="304.000000pt" viewBox="0 0 663.000000 304.000000"
 preserveAspectRatio="xMidYMid meet">

<g transform="translate(0.000000,304.000000) scale(0.100000,-0.100000)"
fill="#000000" stroke="none">
<path d="M279 2831 l-29 -29 0 -906 0 -906 -71 0 c-79 0 -126 -20 -135 -56
-10 -41 1 -77 29 -98 26 -19 42 -21 157 -21 115 0 132 2 157 21 15 11 30 32
33 45 5 22 11 24 78 27 40 2 72 0 72 -4 0 -4 -16 -25 -36 -47 -20 -22 -48 -65
-63 -96 -22 -48 -26 -69 -26 -151 0 -84 3 -102 28 -152 76 -155 240 -234 410
-198 77 16 171 79 214 145 64 99 59 95 78 51 26 -61 107 -140 178 -172 54 -25
74 -29 152 -29 82 0 97 3 157 33 74 36 149 111 170 168 6 19 15 34 19 34 3 0
23 -27 43 -59 67 -109 165 -170 286 -179 152 -11 281 65 357 210 24 46 28 64
28 143 0 109 -19 164 -81 241 -24 30 -44 56 -44 59 0 3 281 5 625 5 344 0 625
-2 625 -5 0 -3 -20 -29 -44 -59 -62 -77 -81 -132 -81 -241 0 -78 4 -98 27
-146 35 -70 107 -142 178 -177 48 -24 67 -27 150 -27 82 0 103 4 152 27 68 31
145 105 173 165 11 24 23 43 27 43 4 0 16 -17 27 -38 34 -67 98 -129 169 -164
60 -30 75 -33 157 -33 78 0 98 4 152 29 76 35 145 105 179 181 l24 55 308 0
308 0 27 -59 c33 -72 104 -144 177 -179 47 -23 68 -27 150 -27 82 0 103 4 152
27 76 36 148 108 178 181 l24 57 102 0 c59 0 114 5 129 12 57 26 55 -7 55 925
0 838 -1 859 -20 890 -11 18 -21 34 -22 35 -2 0 -75 4 -162 7 l-160 6 -11 53
c-38 166 -170 308 -340 364 -65 21 -87 23 -287 23 -213 0 -218 0 -240 -23
l-23 -23 -5 -892 -5 -892 -117 -3 -118 -3 0 901 0 902 -29 29 -29 29 -2357 0
-2357 0 -29 -29z m4621 -766 l0 -615 -2235 0 -2235 0 0 615 0 615 2235 0 2235
0 0 -615z m972 557 c41 -20 79 -47 98 -72 38 -48 85 -151 72 -159 -6 -3 -132
-5 -281 -3 l-271 3 0 135 0 136 158 -3 c155 -4 159 -5 224 -37z m538 -507 l0
-95 -299 0 -299 0 -26 -31 -26 -31 0 -214 c0 -234 6 -265 56 -284 14 -6 153
-10 310 -10 l284 0 0 -375 0 -375 -49 0 -50 0 -30 64 c-71 149 -241 239 -389
207 -124 -26 -229 -109 -272 -213 l-24 -58 -53 0 -53 0 0 748 c0 412 3 752 7
755 3 4 210 7 460 7 l453 0 0 -95z m-2 -377 l3 -108 -236 0 -235 0 0 103 c0
57 3 107 7 111 4 3 108 5 232 4 l226 -3 3 -107z m-1506 -550 c2 -46 2 -86 0
-90 -2 -5 -1009 -8 -2238 -8 l-2234 0 0 90 0 90 2234 0 2234 0 4 -82z m-3622
-282 c0 -2 -14 -19 -31 -37 -16 -19 -44 -58 -61 -86 -16 -29 -32 -53 -34 -53
-2 0 -15 21 -28 48 -14 26 -39 63 -55 82 -17 19 -31 38 -31 43 0 4 54 7 120 7
66 0 120 -2 120 -4z m700 -2 c0 -3 -17 -26 -39 -52 -21 -26 -46 -62 -55 -79
-9 -18 -21 -33 -26 -33 -5 0 -17 15 -26 33 -9 17 -34 53 -55 79 -22 26 -39 49
-39 52 0 3 54 6 120 6 66 0 120 -3 120 -6z m3328 -89 c9 -3 12 -21 10 -57 l-3
-53 -165 -3 -166 -2 -26 57 c-15 31 -25 60 -23 63 4 6 354 1 373 -5z m-4398
-49 c66 -43 98 -147 69 -223 -23 -62 -109 -123 -174 -123 -41 0 -106 32 -139
66 -14 16 -33 50 -41 77 -12 40 -12 54 -1 91 19 62 49 100 98 126 56 28 133
22 188 -14z m700 0 c80 -53 104 -180 49 -261 -32 -48 -111 -86 -165 -81 -78 7
-143 61 -164 134 -13 48 -13 66 2 114 13 43 83 113 121 122 46 10 120 -4 157
-28z m668 19 c93 -40 134 -125 107 -227 -15 -60 -42 -90 -107 -118 -179 -77
-340 151 -209 294 55 60 138 80 209 51z m1751 -21 c86 -56 107 -183 45 -262
-42 -52 -108 -84 -161 -79 -134 14 -215 156 -156 272 26 50 51 73 100 91 53
20 123 11 172 -22z m677 17 c64 -29 97 -80 102 -156 5 -81 -20 -134 -82 -170
-80 -47 -152 -43 -217 12 -85 72 -91 196 -14 276 56 57 137 72 211 38z m1352
-15 c86 -54 109 -184 46 -264 -34 -42 -105 -82 -147 -82 -105 0 -208 114 -193
213 23 140 174 209 294 133z"/>
</g>
</svg>
