<?xml version="1.0" standalone="no"?>
<!DOCTYPE svg PUBLIC "-//W3C//DTD SVG 20010904//EN"
 "http://www.w3.org/TR/2001/REC-SVG-20010904/DTD/svg10.dtd">
<svg version="1.0" xmlns="http://www.w3.org/2000/svg"
 width="777.000000pt" height="321.000000pt" viewBox="0 0 777.000000 321.000000"
 preserveAspectRatio="xMidYMid meet">

<g transform="translate(0.000000,321.000000) scale(0.100000,-0.100000)"
fill="#000000" stroke="none">
<path d="M414 2880 c-57 -23 -54 34 -54 -1053 l0 -998 25 -24 c26 -27 26 -27
158 -25 48 1 87 -3 87 -8 0 -5 -9 -30 -20 -56 l-21 -46 -134 0 c-126 0 -135
-1 -161 -24 -37 -31 -38 -84 -4 -121 23 -24 27 -25 161 -25 l138 0 26 -57 c31
-70 102 -145 170 -181 45 -24 60 -27 155 -27 114 0 149 12 232 77 39 31 58 29
88 -7 8 -9 37 -29 64 -43 46 -24 61 -27 156 -27 96 0 110 2 160 29 71 37 142
112 171 181 l23 55 191 0 c187 0 192 1 213 23 31 33 30 90 -3 122 -24 25 -26
25 -213 25 l-188 0 -21 49 c-18 42 -19 51 -6 55 19 8 2978 8 2985 0 4 -3 -4
-27 -15 -54 l-22 -50 -77 0 c-92 0 -104 -4 -123 -41 -22 -41 -18 -77 10 -104
22 -22 32 -25 104 -25 l80 0 32 -65 c65 -132 181 -205 324 -205 143 0 263 76
325 206 l31 64 364 0 363 0 30 -64 c35 -74 94 -136 167 -174 45 -24 61 -27
155 -27 91 0 112 3 155 25 69 34 137 105 171 178 l29 62 221 0 222 0 53 28
c64 33 113 93 134 164 21 71 22 662 1 711 -20 48 -50 69 -113 79 -75 12 -117
39 -142 92 -18 36 -21 61 -21 178 0 211 -34 366 -120 543 -69 143 -172 240
-312 295 -87 34 -249 68 -493 105 -93 14 -205 31 -248 39 -128 22 -199 -3
-252 -89 l-30 -48 -3 -964 -3 -963 -164 0 -165 0 -25 51 -25 52 25 29 25 30 0
1002 0 1003 -26 24 -26 24 -2486 2 c-1388 1 -2496 -2 -2508 -7z m4871 -1050
l0 -875 -2372 -3 -2373 -2 0 880 0 880 2373 -2 2372 -3 0 -875z m761 731 c27
-5 155 -26 284 -46 242 -37 361 -62 421 -88 32 -15 25 -15 -129 -16 -183 -1
-212 -9 -231 -62 -13 -37 6 -91 37 -108 13 -7 114 -11 281 -11 l260 0 21 -47
c56 -126 72 -209 80 -413 4 -107 9 -202 11 -210 3 -13 -19 -15 -161 -15 l-165
0 -3 116 c-2 111 -4 118 -29 143 -34 35 -85 35 -118 1 -25 -24 -25 -26 -25
-208 l0 -184 26 -24 26 -24 299 -3 c269 -2 304 -4 337 -21 20 -10 49 -21 65
-25 l27 -6 0 -134 0 -134 -74 -4 c-54 -2 -80 -8 -94 -21 -44 -40 -34 -115 19
-142 15 -8 55 -15 89 -15 l60 0 0 -61 c0 -121 -18 -129 -272 -129 l-194 0 -27
59 c-34 74 -105 146 -177 180 -47 22 -69 26 -150 26 -83 0 -102 -3 -151 -28
-69 -34 -142 -109 -175 -182 l-25 -55 -110 0 -109 0 0 943 c0 519 3 947 7 950
8 9 11 9 69 -2z m-5061 -1802 c84 -24 135 -89 135 -174 0 -192 -257 -252 -340
-80 -51 105 3 220 118 255 37 11 42 11 87 -1z m540 0 c92 -26 140 -94 133
-190 -7 -101 -75 -163 -179 -163 -211 -2 -244 293 -41 354 37 11 42 11 87 -1z
m3665 -14 c58 -30 93 -89 93 -160 0 -80 -40 -138 -115 -170 -49 -20 -84 -19
-133 4 -105 47 -144 171 -82 261 55 81 152 108 237 65z m1395 14 c92 -26 140
-94 133 -190 -7 -101 -75 -163 -179 -163 -72 -1 -127 33 -158 96 -49 103 -3
215 105 253 48 17 50 17 99 4z"/>
</g>
</svg>
