<?xml version="1.0" standalone="no"?>
<!DOCTYPE svg PUBLIC "-//W3C//DTD SVG 20010904//EN"
 "http://www.w3.org/TR/2001/REC-SVG-20010904/DTD/svg10.dtd">
<svg version="1.0" xmlns="http://www.w3.org/2000/svg"
 width="819.000000pt" height="304.000000pt" viewBox="0 0 819.000000 304.000000"
 preserveAspectRatio="xMidYMid meet">

<g transform="translate(0.000000,304.000000) scale(0.100000,-0.100000)"
fill="#000000" stroke="none">
<path d="M6580 2800 c-20 -20 -20 -33 -20 -1014 l0 -995 26 -20 c33 -26 45
-26 78 0 l26 20 0 790 0 789 308 0 c330 -1 350 -4 417 -54 63 -48 84 -100 111
-268 60 -390 61 -398 47 -398 -7 0 -153 29 -325 65 -310 65 -313 65 -338 47
-32 -24 -38 -72 -12 -95 13 -12 136 -42 380 -92 199 -41 371 -75 382 -75 12 0
32 -11 45 -25 22 -21 25 -33 25 -90 0 -36 -2 -65 -5 -65 -3 0 -62 9 -131 20
-133 21 -153 19 -175 -21 -14 -27 5 -76 35 -85 11 -4 77 -17 146 -28 l125 -21
3 -118 3 -119 -53 8 c-29 4 -61 7 -72 6 -48 -3 -74 -72 -40 -106 16 -17 31
-21 109 -34 l50 -7 3 -92 c4 -139 -30 -183 -141 -183 -50 0 -77 -22 -77 -63 0
-37 42 -67 94 -67 97 0 180 45 224 119 l27 46 3 450 3 450 -24 45 c-14 27 -41
57 -68 75 l-45 30 -47 304 c-38 252 -51 313 -73 357 -56 111 -180 199 -298
211 -53 6 -57 8 -97 61 -121 160 -249 229 -470 252 -134 13 -136 13 -159 -10z
m243 -135 c37 -8 90 -27 118 -42 55 -29 139 -99 139 -114 0 -6 -78 -8 -192 -7
l-193 3 -3 88 -3 87 33 0 c18 0 64 -7 101 -15z"/>
<path d="M685 2796 c-107 -34 -186 -102 -232 -201 l-28 -60 0 -840 0 -840 32
-67 c55 -117 161 -197 287 -218 68 -11 101 -1 118 35 22 50 -21 95 -91 95 -45
0 -133 51 -168 97 -18 25 -36 65 -42 96 -8 36 -11 294 -9 832 l3 780 24 48
c25 52 71 92 128 113 31 11 523 13 2826 14 l2787 0 -2 -807 -3 -808 -2370 -2
c-1303 -1 -2380 -5 -2392 -8 -45 -11 -42 -98 3 -115 16 -6 531 -10 1370 -10
l1346 0 -7 -32 c-15 -71 -80 -152 -144 -181 -17 -8 -143 -14 -372 -17 -323 -5
-348 -6 -368 -24 -27 -24 -27 -68 0 -92 20 -18 42 -19 322 -22 166 -2 330 2
364 7 170 26 291 141 326 308 l11 53 1008 2 c952 3 1008 4 1025 21 17 17 18
67 18 918 l0 901 -24 19 c-23 19 -81 19 -2865 18 -2265 0 -2849 -3 -2881 -13z"/>
<path d="M1193 876 c-229 -75 -333 -328 -221 -539 73 -136 238 -217 386 -190
216 40 351 234 308 442 -26 123 -101 217 -214 269 -69 31 -192 40 -259 18z
m202 -141 c89 -36 139 -116 140 -221 0 -61 -4 -77 -30 -120 -44 -70 -109 -107
-194 -112 -57 -3 -73 0 -120 25 -125 66 -166 217 -91 336 62 99 185 137 295
92z"/>
<path d="M1995 877 c-74 -25 -122 -56 -173 -111 -68 -75 -95 -147 -95 -251 0
-115 28 -182 108 -261 83 -82 148 -108 265 -108 75 -1 93 3 152 31 82 39 151
105 186 181 24 50 27 69 27 162 0 100 -1 108 -34 168 -68 125 -174 192 -314
198 -52 3 -97 -1 -122 -9z m213 -149 c82 -38 141 -145 128 -234 -17 -124 -117
-214 -238 -214 -203 0 -312 237 -180 390 73 86 183 108 290 58z"/>
<path d="M2785 874 c-218 -69 -325 -318 -225 -521 39 -78 120 -154 198 -184
80 -31 207 -32 275 -2 161 74 246 209 235 378 -9 133 -88 249 -210 309 -73 36
-196 45 -273 20z m228 -152 c135 -72 162 -257 54 -371 -112 -117 -315 -85
-386 62 -25 52 -28 141 -5 195 17 43 67 97 106 118 74 38 154 37 231 -4z"/>
<path d="M5015 877 c-101 -34 -189 -107 -234 -194 -73 -144 -36 -334 88 -444
76 -67 143 -92 252 -93 82 -1 91 1 165 39 92 47 150 110 184 202 33 89 26 206
-17 294 -39 79 -102 141 -180 176 -67 31 -195 41 -258 20z m194 -139 c73 -22
151 -135 151 -218 0 -92 -70 -193 -156 -226 -143 -55 -309 48 -322 200 -15
180 145 299 327 244z"/>
<path d="M5797 875 c-102 -28 -183 -100 -235 -212 -23 -50 -27 -71 -27 -148 0
-78 4 -98 29 -153 72 -155 258 -249 417 -212 117 28 217 107 265 213 26 55 29
73 29 157 -1 77 -5 104 -23 145 -80 173 -269 261 -455 210z m213 -145 c113
-57 163 -191 115 -308 -21 -51 -94 -118 -144 -132 -46 -13 -106 -13 -152 0
-48 13 -118 75 -140 124 -23 51 -25 143 -3 194 51 124 204 182 324 122z"/>
<path d="M6995 877 c-102 -34 -180 -100 -228 -192 -30 -57 -32 -66 -32 -170 0
-101 2 -114 28 -164 148 -281 534 -278 674 6 34 68 37 82 36 156 0 107 -27
178 -94 252 -73 79 -156 118 -262 122 -50 2 -98 -2 -122 -10z m201 -142 c129
-52 183 -221 108 -341 -105 -171 -367 -142 -430 48 -64 194 130 371 322 293z"/>
<path d="M6355 525 c-30 -29 -32 -55 -6 -86 19 -23 24 -24 155 -23 117 0 138
3 156 19 11 10 20 30 20 44 -1 59 -31 71 -180 71 -115 0 -122 -1 -145 -25z"/>
</g>
</svg>
