<?xml version="1.0" standalone="no"?>
<!DOCTYPE svg PUBLIC "-//W3C//DTD SVG 20010904//EN"
 "http://www.w3.org/TR/2001/REC-SVG-20010904/DTD/svg10.dtd">
<svg version="1.0" xmlns="http://www.w3.org/2000/svg"
 width="716.000000pt" height="349.000000pt" viewBox="0 0 716.000000 349.000000"
 preserveAspectRatio="xMidYMid meet">

<g transform="translate(0.000000,349.000000) scale(0.100000,-0.100000)"
fill="#000000" stroke="none">
<path d="M195 3258 c-3 -7 -4 -510 -3 -1118 l3 -1105 160 -5 160 -5 3 -237 c2
-180 5 -238 15 -239 6 -1 59 -4 116 -8 l104 -6 22 -67 c31 -92 66 -149 132
-214 196 -193 519 -182 704 24 51 56 103 153 120 220 19 81 59 69 92 -28 48
-141 136 -245 260 -304 191 -92 414 -53 562 98 65 66 121 165 132 232 3 19 10
37 15 40 5 3 58 6 117 7 60 1 113 6 118 10 4 5 8 113 8 240 l0 232 83 3 82 3
0 -240 c0 -197 2 -240 14 -244 8 -3 83 -6 166 -6 84 0 153 -1 154 -3 1 -2 11
-32 21 -67 53 -179 225 -328 405 -350 155 -20 291 24 404 130 67 62 122 154
146 241 l12 46 197 4 c108 2 391 1 629 -2 l434 -5 22 -71 c74 -232 302 -377
539 -344 194 28 363 180 412 370 l11 45 91 11 c101 13 142 33 170 87 20 39 20
70 -1 347 -8 118 -22 310 -31 425 -28 394 -37 437 -104 508 -55 60 -125 81
-329 97 -72 6 -138 13 -145 16 -7 2 -26 53 -41 112 -16 59 -43 163 -61 232
-19 69 -47 179 -65 244 -40 154 -64 209 -108 247 -48 42 -88 58 -182 70 -73 9
-85 14 -142 57 -129 97 -371 199 -567 238 -100 20 -284 43 -293 38 -5 -3 -8
-505 -8 -1115 l0 -1110 -77 3 -78 3 -3 1113 -2 1112 -2295 0 c-1827 0 -2297
-3 -2300 -12z m4443 -1110 l-3 -973 -2150 0 -2150 0 -3 973 -2 972 2155 0
2155 0 -2 -972z m640 925 c143 -34 266 -82 250 -98 -9 -9 -410 26 -425 38 -14
10 -18 79 -6 90 8 9 48 2 181 -30z m68 -233 c82 -6 219 -17 304 -25 85 -8 193
-17 240 -20 88 -7 150 -21 150 -34 0 -17 -87 -21 -468 -21 l-392 0 2 -972 3
-973 313 -3 c171 -1 312 -6 312 -10 0 -4 -6 -27 -14 -52 l-13 -45 -324 -3
c-178 -1 -334 0 -346 3 l-23 5 0 1079 c0 593 3 1081 8 1085 4 5 28 6 53 3 26
-3 113 -11 195 -17z m767 -249 c11 -11 147 -513 147 -546 0 -13 -9 -16 -52
-13 l-53 3 -17 55 c-9 30 -26 100 -38 155 -12 55 -36 156 -51 224 -23 98 -27
126 -17 133 14 8 67 1 81 -11z m-248 -1 c3 -5 14 -44 25 -87 86 -348 110 -455
105 -463 -4 -6 -132 -10 -336 -10 l-329 0 0 285 0 285 264 0 c160 0 267 -4
271 -10z m153 -712 c5 -7 13 -62 16 -123 9 -153 35 -558 40 -628 l4 -57 -73
-55 c-40 -30 -78 -62 -85 -70 -11 -13 -56 -15 -301 -15 l-289 0 0 473 c0 261
3 477 7 480 3 4 156 7 338 7 254 0 335 -3 343 -12z m571 -13 c234 -23 244 -34
261 -265 5 -80 19 -266 30 -415 12 -148 23 -320 27 -382 l6 -112 -25 -6 c-14
-4 -42 -5 -63 -3 -37 3 -38 4 -61 71 -73 220 -258 357 -481 357 -42 0 -65 4
-67 13 -2 6 -9 107 -15 222 -7 116 -16 282 -21 370 -5 87 -6 163 -3 168 7 12
209 3 412 -18z m-5680 -892 c-77 -80 -99 -114 -130 -207 -27 -80 -27 -81 -64
-84 -62 -6 -65 2 -65 178 0 86 3 160 7 163 3 4 74 7 157 7 l150 0 -55 -57z
m1091 51 c0 -3 -24 -30 -53 -59 -54 -54 -116 -164 -137 -242 -9 -35 -15 -43
-34 -43 -29 0 -41 15 -49 57 -12 64 -71 168 -129 226 -32 32 -58 60 -58 63 0
2 104 4 230 4 127 0 230 -3 230 -6z m888 -166 l-3 -173 -38 -3 c-47 -4 -63 8
-71 53 -12 62 -77 175 -132 231 -30 29 -54 56 -54 59 0 3 68 5 150 5 l150 0
-2 -172z m715 26 c3 -4 -1 -21 -10 -38 -9 -17 -26 -60 -38 -96 l-22 -65 -86
-3 c-74 -2 -87 0 -95 15 -11 21 -16 168 -7 183 7 11 247 14 258 4z m1302 -99
l0 -100 -183 -3 c-181 -2 -182 -2 -191 20 -5 13 -23 57 -40 98 -17 41 -31 78
-31 83 0 4 100 6 223 5 l222 -3 0 -100z m-3566 5 c128 -65 147 -232 38 -327
-99 -87 -249 -58 -306 61 -51 104 -12 215 94 270 42 22 127 20 174 -4z m1064
-9 c60 -39 90 -96 90 -171 0 -181 -213 -266 -339 -135 -45 47 -69 116 -59 169
30 143 187 213 308 137z m1715 10 c138 -71 150 -256 23 -346 -37 -26 -51 -30
-109 -30 -59 0 -72 4 -114 32 -128 89 -114 274 27 347 42 22 127 20 173 -3z
m2270 -9 c60 -43 86 -88 90 -157 5 -77 -20 -132 -79 -175 -82 -59 -182 -49
-255 24 -96 95 -74 252 43 316 53 28 155 24 201 -8z"/>
</g>
</svg>
